<?xml version="1.0" standalone="no"?>
<!DOCTYPE svg PUBLIC "-//W3C//DTD SVG 20010904//EN"
 "http://www.w3.org/TR/2001/REC-SVG-20010904/DTD/svg10.dtd">
<svg version="1.0" xmlns="http://www.w3.org/2000/svg"
 width="240.000000pt" height="240.000000pt" viewBox="0 0 240.000000 240.000000"
 preserveAspectRatio="xMidYMid meet">
<metadata>
Created by potrace 1.10, written by Peter Selinger 2001-2011
</metadata>
<g transform="translate(0.000000,240.000000) scale(0.100000,-0.100000)"
fill="#000000" stroke="none">
<path d="M1093 1793 c59 -2 154 -2 210 0 56 1 8 3 -108 3 -115 0 -161 -2 -102
-3z"/>
<path d="M947 1777 c2 -4 -6 -5 -20 -2 -18 5 -30 1 -46 -16 -11 -12 -24 -20
-27 -16 -4 4 -13 -1 -21 -11 -8 -9 -11 -11 -8 -4 6 11 3 12 -14 3 -11 -7 -21
-14 -21 -17 0 -3 5 -2 12 2 7 5 8 3 4 -5 -5 -7 -14 -10 -21 -7 -7 2 -32 -16
-56 -42 -24 -26 -35 -40 -23 -32 11 8 6 2 -10 -14 -17 -16 -25 -25 -18 -21 11
6 12 3 3 -14 -7 -11 -16 -21 -21 -21 -15 0 -39 -67 -33 -91 4 -12 2 -20 -3
-17 -5 4 -9 -100 -9 -252 0 -150 4 -256 9 -253 5 4 6 -6 2 -21 -5 -19 -3 -26
4 -21 6 4 11 1 9 -6 -3 -28 1 -46 17 -65 8 -10 13 -13 9 -6 -11 21 4 13 16 -9
9 -17 8 -20 -3 -14 -7 3 -4 -1 7 -10 11 -9 19 -20 18 -24 -1 -4 17 -26 40 -47
23 -21 35 -30 27 -18 -8 11 -2 6 14 -10 16 -17 26 -25 22 -18 -12 21 4 13 29
-14 13 -14 35 -27 49 -28 13 0 22 -5 19 -10 -3 -4 10 -5 28 -1 19 3 29 3 22
-2 -6 -4 105 -8 247 -8 152 0 256 4 252 9 -3 5 5 7 17 3 25 -6 71 10 71 25 0
5 5 6 10 3 6 -3 10 -2 10 4 0 6 10 15 21 22 17 9 20 8 14 -3 -4 -7 3 -2 14 12
11 14 21 21 21 16 0 -6 16 5 35 24 19 18 32 37 29 42 -3 4 2 11 11 14 8 4 20
15 26 26 9 16 8 19 -3 13 -7 -3 -5 0 4 8 10 8 15 17 11 20 -3 4 -2 7 4 7 16 0
34 49 27 78 -3 15 -2 22 3 15 4 -6 8 105 8 247 0 142 -4 253 -8 247 -5 -7 -6
0 -2 16 4 20 2 27 -6 22 -8 -5 -9 -1 -4 14 4 13 2 21 -5 21 -6 0 -8 5 -5 10 3
6 1 10 -5 10 -6 0 -9 4 -6 9 3 5 -1 12 -10 15 -9 3 -14 13 -10 21 3 9 -3 19
-15 25 -11 6 -17 15 -15 19 7 10 -50 64 -70 67 -9 2 -22 8 -28 15 -8 9 -8 10
2 5 6 -4 12 -5 12 -2 0 3 -10 10 -21 17 -17 9 -20 8 -14 -3 3 -7 0 -5 -8 4 -8
10 -17 15 -20 11 -4 -3 -7 -1 -7 6 0 7 -4 9 -10 6 -5 -3 -10 -1 -10 5 0 7 -8
9 -21 5 -15 -5 -19 -4 -14 4 5 8 -2 10 -22 6 -16 -4 -23 -3 -16 2 6 4 -105 8
-247 8 -142 0 -256 -4 -253 -8z m309 -18 c199 -1 199 -1 264 -31 86 -40 94
-46 78 -67 -10 -13 -10 -14 2 -3 8 6 18 12 23 12 4 0 5 -6 1 -12 -4 -7 -4 -10
1 -6 4 4 14 3 22 -3 11 -10 10 -14 -4 -25 -16 -12 -16 -12 6 -7 17 4 22 3 17
-6 -4 -7 -2 -10 4 -9 11 3 47 -45 49 -63 1 -10 -49 -1 -64 11 -8 7 -12 16 -9
21 2 5 -7 19 -22 31 -15 13 -33 29 -40 36 -8 7 -14 11 -14 7 0 -3 -10 3 -22
15 -12 11 -27 20 -34 20 -6 0 -25 7 -40 15 -16 8 -37 15 -47 15 -10 0 -27 5
-38 10 -10 6 -19 7 -19 3 0 -4 -28 -7 -62 -5 -35 2 -74 -1 -88 -7 -19 -7 -1
-10 80 -11 74 -1 99 -4 85 -11 -15 -7 -11 -8 18 -5 20 3 37 1 37 -4 0 -5 7 -6
17 -3 11 5 14 3 8 -6 -6 -10 -2 -11 15 -6 15 5 20 4 16 -4 -5 -7 -1 -8 10 -4
12 4 15 3 10 -5 -4 -8 -2 -10 7 -6 8 3 18 0 23 -7 5 -8 3 -10 -7 -4 -8 5 -11
4 -6 -1 5 -5 12 -9 15 -9 11 -1 76 -69 77 -80 1 -5 7 -9 14 -7 9 2 11 -3 7
-14 -6 -15 -4 -15 10 -3 16 13 16 12 6 -8 -9 -17 -9 -22 3 -27 8 -3 15 -11 15
-18 0 -9 -3 -8 -10 2 -6 9 -10 10 -10 3 0 -6 6 -18 14 -25 8 -8 12 -28 10 -48
-3 -28 -2 -31 5 -15 7 14 10 -22 10 -112 1 -87 5 -133 12 -133 5 0 8 4 4 9 -3
5 -2 12 2 14 5 3 5 67 2 144 -4 101 -11 147 -23 171 -26 50 -4 70 35 31 15
-15 19 -28 15 -47 -5 -20 -4 -23 3 -12 7 10 10 -69 9 -249 l-1 -264 -36 -71
c-21 -40 -43 -70 -50 -68 -7 1 -10 -2 -6 -8 3 -5 1 -10 -5 -10 -6 0 -9 -4 -6
-9 3 -5 -1 -14 -9 -21 -8 -7 -15 -9 -15 -4 0 5 -7 -1 -15 -13 -8 -11 -50 -38
-92 -59 l-78 -39 -250 0 -250 1 -57 28 c-32 16 -56 32 -53 36 3 5 -5 6 -17 2
-20 -5 -21 -4 -9 11 7 9 18 14 25 10 6 -4 5 0 -2 9 -9 11 -10 18 -2 23 5 3 10
2 10 -4 0 -5 9 -13 20 -16 11 -4 18 -11 14 -16 -3 -5 -9 -7 -14 -4 -4 3 -7 -2
-6 -10 2 -16 21 -21 21 -6 0 20 15 22 47 5 27 -15 64 -19 213 -21 99 -2 199
-4 223 -6 23 -1 42 1 42 5 0 5 9 8 20 8 29 0 102 30 128 53 12 11 22 17 22 13
0 -5 16 8 36 28 20 20 41 33 47 29 7 -4 7 0 -1 9 -11 14 -10 18 5 30 17 12 39
62 48 108 2 12 7 31 10 43 6 22 6 22 -11 2 -16 -20 -16 -20 -12 5 l4 25 -170
-5 -171 -5 163 -3 c89 -1 162 -6 162 -10 0 -4 3 -18 7 -31 5 -18 3 -22 -6 -16
-10 6 -11 2 -6 -15 5 -17 4 -21 -6 -15 -9 6 -11 3 -6 -8 3 -10 2 -17 -4 -17
-6 0 -5 -9 2 -22 11 -21 11 -22 -5 -9 -14 12 -16 12 -10 -3 4 -11 2 -16 -7
-14 -7 2 -13 -2 -14 -9 0 -7 -9 -19 -20 -28 -11 -9 -14 -13 -6 -9 9 5 12 3 7
-4 -4 -7 -14 -12 -22 -12 -8 0 -12 -4 -9 -10 3 -5 1 -11 -4 -11 -34 -4 -61
-20 -54 -32 4 -6 0 -8 -11 -4 -11 4 -15 3 -10 -4 4 -8 -1 -9 -16 -4 -17 5 -21
4 -15 -6 6 -9 3 -11 -8 -6 -10 3 -17 2 -17 -2 0 -5 -19 -7 -42 -5 -34 3 -38 2
-18 -5 16 -6 -49 -9 -180 -9 -131 0 -196 3 -180 9 19 6 13 8 -23 4 -34 -3 -46
-2 -41 7 4 7 3 8 -5 4 -15 -9 -53 3 -46 15 3 5 -2 6 -11 2 -11 -4 -15 -2 -11
4 6 9 -13 24 -34 27 -3 1 -17 12 -30 26 -13 15 -17 17 -9 5 14 -20 14 -20 -9
1 -12 11 -24 29 -25 40 -2 10 -9 18 -16 16 -8 -2 -10 3 -6 14 6 15 4 15 -10 3
-16 -13 -16 -12 -5 10 7 13 8 21 3 17 -13 -8 -26 29 -16 45 4 7 3 10 -2 6 -5
-3 -9 96 -9 239 0 134 3 244 7 244 3 0 4 10 0 22 -3 14 -1 19 6 14 8 -5 10 -1
5 10 -4 12 -3 15 5 10 8 -5 10 -1 5 10 -4 12 -3 15 5 10 8 -5 10 -2 6 9 -4 10
-2 15 7 13 7 -2 13 2 14 7 1 11 66 79 77 80 3 0 10 4 15 9 5 5 2 6 -6 1 -10
-6 -12 -4 -7 4 5 7 15 10 23 7 9 -4 11 -2 7 6 -5 8 -2 9 10 5 11 -4 15 -3 10
4 -4 8 1 9 16 4 17 -5 21 -4 15 6 -6 9 -3 11 8 6 10 -3 17 -2 17 3 0 5 17 7
38 4 28 -3 32 -2 17 5 -15 7 -4 10 45 11 54 1 61 3 40 11 -23 10 -78 7 -143
-6 -42 -8 -117 -46 -117 -58 0 -6 -3 -8 -6 -5 -3 4 -21 -9 -41 -28 -19 -19
-40 -31 -46 -27 -7 4 -7 1 1 -9 11 -14 10 -18 -5 -30 -20 -14 -40 -60 -55
-126 -5 -24 -8 -134 -6 -255 4 -195 6 -216 26 -257 33 -66 43 -81 80 -119 26
-26 31 -36 20 -42 -11 -7 -10 -9 1 -9 12 0 13 -2 2 -13 -10 -10 -15 -8 -27 7
-8 11 -14 16 -14 12 0 -5 -7 -3 -15 4 -9 7 -13 15 -11 17 3 3 -7 16 -21 29
-14 13 -22 28 -17 35 4 8 3 9 -4 5 -7 -4 -12 -2 -12 3 0 19 5 26 15 23 5 -2 6
0 2 5 -5 4 -14 8 -20 8 -6 0 -20 15 -31 34 -17 30 -19 54 -20 245 -1 241 5
315 28 351 9 14 16 27 16 30 0 16 40 70 50 67 6 -1 9 2 5 8 -3 5 -1 10 5 10 6
0 9 4 6 9 -3 5 1 14 9 21 8 7 15 9 15 4 0 -5 7 1 15 13 24 34 133 85 200 92
33 4 63 6 66 4 3 -1 96 -3 205 -4z m-549 -661 c-1 -57 -3 -11 -3 102 0 113 2
159 3 103 2 -57 2 -149 0 -205z"/>
<path d="M1104 1490 c0 -113 2 -159 3 -102 2 56 2 148 0 205 -1 56 -3 10 -3
-103z"/>
<path d="M1120 1484 c0 -115 -3 -220 -7 -233 -4 -16 -2 -22 4 -18 11 7 28 -22
18 -31 -3 -3 -5 1 -5 8 0 7 -3 11 -6 8 -7 -8 22 -64 38 -74 8 -5 7 0 -2 12
-14 18 -14 18 3 5 10 -8 16 -20 13 -27 -6 -15 39 -58 53 -50 5 4 13 1 17 -5 4
-8 3 -9 -4 -5 -7 4 -12 5 -12 2 0 -9 61 -38 68 -32 3 3 -1 6 -8 6 -7 0 -11 2
-8 5 9 10 38 -7 31 -18 -4 -6 2 -8 18 -4 13 4 98 7 189 8 102 0 155 4 138 9
-15 4 -87 9 -160 9 -137 2 -223 15 -211 34 4 6 1 7 -6 2 -14 -8 -61 13 -61 27
0 5 -11 19 -25 32 -27 25 -70 116 -55 116 6 0 6 9 1 23 -5 12 -9 105 -10 206
0 101 -3 186 -6 189 -3 3 -5 -89 -5 -204z"/>
<path d="M1188 1679 c-8 -20 -10 -173 -2 -194 4 -8 18 -15 33 -16 23 0 24 -1
6 -9 -13 -6 18 -9 86 -9 90 -1 108 -4 113 -18 10 -26 -13 -33 -99 -31 -44 0
-91 -3 -105 -7 -25 -9 -25 -9 8 -16 18 -3 76 -7 130 -8 l98 -2 -2 39 c-1 22
-5 45 -9 52 -6 9 -4 11 5 5 9 -5 11 -4 6 3 -5 8 -46 12 -122 12 l-114 0 -2
108 -2 107 -6 -110 -6 -110 -4 110 c-3 61 -8 103 -12 94z"/>
<path d="M1186 1362 c-4 -7 -4 -34 0 -60 4 -26 8 -51 9 -57 0 -5 8 -19 17 -29
10 -10 15 -23 12 -27 -3 -5 6 -14 20 -20 14 -7 23 -18 21 -28 -2 -12 6 -16 37
-18 23 0 43 -5 47 -11 7 -11 289 -16 316 -5 12 5 -43 10 -140 14 l-160 5 172
0 c96 -1 165 3 157 7 -8 5 -93 7 -189 5 -95 -2 -171 0 -169 3 2 3 -8 11 -22
18 -20 9 -24 9 -19 -1 4 -7 0 -5 -8 4 -8 10 -17 15 -20 11 -4 -3 -8 -1 -8 5
-4 33 -6 37 -18 34 -9 -2 -11 3 -7 13 4 11 2 14 -6 9 -8 -5 -9 -2 -5 10 4 9 3
15 -2 12 -5 -4 -8 20 -6 51 2 54 2 55 -4 13 l-7 -45 -5 50 c-2 32 -7 45 -13
37z"/>
<path d="M967 1093 c-9 -2 -14 -9 -10 -15 4 -7 0 -9 -10 -5 -9 3 -21 -1 -29
-11 -11 -15 -11 -16 2 -7 9 6 6 1 -6 -10 -15 -14 -22 -33 -22 -65 -1 -34 1
-41 9 -30 8 12 9 11 7 -6 -4 -27 19 -55 39 -47 9 4 14 2 10 -3 -10 -16 77 -11
91 6 11 13 12 13 7 0 -4 -8 1 -6 9 4 9 11 16 24 16 29 0 4 4 6 9 3 11 -7 21
17 21 50 0 16 -4 23 -11 18 -7 -4 -9 0 -5 14 6 17 0 24 -23 37 -17 8 -31 18
-31 21 0 3 5 2 12 -2 7 -4 8 -3 4 5 -5 7 -21 10 -44 6 -28 -4 -32 -3 -17 4 21
10 4 12 -28 4z m84 -63 c26 -25 28 -32 18 -51 -8 -16 -8 -20 1 -14 8 5 8 1 -1
-13 -14 -23 -50 -42 -79 -42 -22 0 -53 28 -44 41 3 5 0 8 -8 7 -22 -5 -11 64
13 85 31 25 66 21 100 -13z"/>
<path d="M604 1200 c0 -118 2 -167 3 -107 2 59 2 155 0 215 -1 59 -3 10 -3
-108z"/>
<path d="M1794 1200 c0 -118 2 -167 3 -107 2 59 2 155 0 215 -1 59 -3 10 -3
-108z"/>
<path d="M1093 603 c59 -2 155 -2 215 0 59 1 10 3 -108 3 -118 0 -167 -2 -107
-3z"/>
</g>
</svg>
